# xmcd CD database file
#
# Track frame offsets:
#	150
#	10779
#	22390
#	34470
#	47595
#	59748
#	72030
#	86685
#	101347
#	114141
#	125876
#	144135
#	162894
#	176413
#	191085
#	206223
#	217949
#	231918
#	246495
#	259267
#
# Disc length: 3650 seconds
#
# Revision: 8
# Processed by: cddbd v1.5.2PL0 Copyright (c) Steve Scherf et al.
# Submitted via: CDex 1.51
#
DISCID=260e4014
DTITLE=Django Reinhardt - Djangology - Vol.02
DYEAR=1900
DGENRE=Jazz
TTITLE0=Pennies From Heaven  (Burke - Johnston)
TTITLE1=Tiger Rag  (La Rocca - De Costa)
TTITLE2=Whoa Baby  (Clinton)
TTITLE3=P. B. Flat Blues  (Brun)
TTITLE4=Saint-Louis Blues (Handy)
TTITLE5=Bouncing Around (Deloof)
TTITLE6=Minor Swing  (Reinhardt - Grappelly)
TTITLE7=Viper's Dream  (Allen)
TTITLE8=Swinging With Django  (Reinhardt - Grappelly)
TTITLE9=Paramount Stomp  (Reinhardt - Grappelly - Romans)
TTITLE10=Bolero  (Reinhardt)
TTITLE11=Mabel  (Reinhardt - Grappelly)
TTITLE12=My Serenade  (Reinhardt)
TTITLE13=Serenade for a Wealthy Widow  (Foresythe - Fields)
TTITLE14=Taj Mahal  (Warlop)
TTITLE15=Organ Grinder's Swing  (Hudson - Parish - Mills)
TTITLE16=You Rascal, You  (Theard)
TTITLE17=Tea for Two  (Youmans)
TTITLE18=Christmas Swing  (Reinhardt)
TTITLE19=Sweet Georgia Brown  (Bernie - Pinkard - Casey)
EXTD=
EXTT0=
EXTT1=
EXTT2=
EXTT3=
EXTT4=
EXTT5=
EXTT6=
EXTT7=
EXTT8=
EXTT9=
EXTT10=
EXTT11=
EXTT12=
EXTT13=
EXTT14=
EXTT15=
EXTT16=
EXTT17=
EXTT18=
EXTT19=
PLAYORDER=
